<svg xmlns="http://www.w3.org/2000/svg" xmlns:xlink="http://www.w3.org/1999/xlink" width="2000" zoomAndPan="magnify" viewBox="0 0 1500 1499.999933" height="2000" preserveAspectRatio="xMidYMid meet" version="1.0"><defs><clipPath id="1f093b0359"><path d="M 474 332 L 1478 332 L 1478 575 L 474 575 Z M 474 332 " clip-rule="nonzero"/></clipPath><clipPath id="adeecbef9c"><path d="M 1531.582031 967.210938 L 855.992188 1373.308594 L 474.621094 738.859375 L 1150.210938 332.761719 Z M 1531.582031 967.210938 " clip-rule="nonzero"/></clipPath><clipPath id="5e8ca12fc4"><path d="M 1985.269531 694.5 L 856.5 1373.003906 L 16.097656 -25.101562 L 1144.867188 -703.605469 Z M 1985.269531 694.5 " clip-rule="nonzero"/></clipPath><clipPath id="092bcd82f6"><path d="M 892 431 L 1422 431 L 1422 1217 L 892 1217 Z M 892 431 " clip-rule="nonzero"/></clipPath><clipPath id="24528b1c3b"><path d="M 1531.582031 967.210938 L 855.992188 1373.308594 L 474.621094 738.859375 L 1150.210938 332.761719 Z M 1531.582031 967.210938 " clip-rule="nonzero"/></clipPath><clipPath id="a376bb3210"><path d="M 1985.269531 694.5 L 856.5 1373.003906 L 16.097656 -25.101562 L 1144.867188 -703.605469 Z M 1985.269531 694.5 " clip-rule="nonzero"/></clipPath><clipPath id="488ee891dd"><path d="M 67 150 L 873 150 L 873 745 L 67 745 Z M 67 150 " clip-rule="nonzero"/></clipPath><clipPath id="a53b005774"><path d="M 639 769 L 1332 769 L 1332 1373.25 L 639 1373.25 Z M 639 769 " clip-rule="nonzero"/></clipPath><clipPath id="e93fbdf044"><path d="M 469 915 L 1070 915 L 1070 1373.25 L 469 1373.25 Z M 469 915 " clip-rule="nonzero"/></clipPath><clipPath id="ab6f0e3b23"><path d="M 247 150 L 1434.964844 150 L 1434.964844 1373.25 L 247 1373.25 Z M 247 150 " clip-rule="nonzero"/></clipPath><clipPath id="5cc3fd603e"><path d="M 148 150 L 1163 150 L 1163 992 L 148 992 Z M 148 150 " clip-rule="nonzero"/></clipPath></defs><rect x="-150" width="1800" fill="#ffffff" y="-149.999993" height="1799.99992" fill-opacity="1"/><rect x="-150" width="1800" fill="#ffffff" y="-149.999993" height="1799.99992" fill-opacity="1"/><g clip-path="url(#1f093b0359)"><g clip-path="url(#adeecbef9c)"><g clip-path="url(#5e8ca12fc4)"><path fill="#112c54" d="M 1168.464844 108.070312 L 1354.113281 -226.730469 C 1470.066406 -162.53125 1511.945312 -16.484375 1447.644531 99.472656 L 1261.996094 434.269531 C 1146.042969 370.070312 1104.164062 224.027344 1168.464844 108.070312 Z M 550.15625 544.492188 L 1066.199219 -386.128906 L 1276.148438 -269.894531 L 876.535156 450.777344 C 812.878906 565.574219 669.027344 607.84375 553.644531 546.386719 Z M 262.238281 385.085938 L 661.855469 -335.578125 C 726.152344 -451.542969 872.277344 -493.503906 988.234375 -429.292969 L 588.617188 291.371094 C 524.964844 406.167969 381.109375 448.4375 265.726562 386.980469 Z M 262.238281 385.085938 " fill-opacity="1" fill-rule="evenodd"/></g></g></g><g clip-path="url(#092bcd82f6)"><g clip-path="url(#24528b1c3b)"><g clip-path="url(#a376bb3210)"><path fill="#f36b00" d="M 1202.359375 595.480469 C 1123.175781 643.074219 1020.429688 617.519531 972.871094 538.394531 L 941.824219 486.75 L 993.511719 455.679688 C 1072.695312 408.082031 1175.441406 433.640625 1223 512.765625 L 1254.046875 564.410156 Z M 947.679688 938.242188 L 916.636719 886.59375 C 869.570312 808.296875 894.183594 706.882812 971.433594 658.652344 L 973.890625 657.148438 L 1025.578125 626.078125 L 1056.621094 677.726562 C 1103.6875 756.027344 1079.074219 857.441406 1001.824219 905.667969 L 999.367188 907.175781 Z M 1369.863281 874.140625 C 1290.683594 921.738281 1187.9375 896.183594 1140.375 817.058594 L 1109.328125 765.410156 L 1161.015625 734.34375 C 1240.199219 686.746094 1342.945312 712.304688 1390.503906 791.425781 L 1421.550781 843.074219 Z M 1115.183594 1216.90625 L 1084.140625 1165.257812 C 1037.074219 1086.960938 1061.6875 985.546875 1138.9375 937.316406 L 1141.398438 935.8125 L 1193.082031 904.742188 L 1224.125 956.390625 C 1271.191406 1034.6875 1246.578125 1136.101562 1169.328125 1184.332031 L 1166.871094 1185.835938 Z M 1115.183594 1216.90625 " fill-opacity="1" fill-rule="evenodd"/></g></g></g><g clip-path="url(#488ee891dd)"><path fill="#160060" d="M 101.675781 744.234375 C 80.128906 633.027344 179 528.820312 180.023438 527.773438 L 180.09375 527.726562 L 872.1875 -81.59375 L 716.171875 -81.59375 L 148.898438 426.347656 C 86.078125 482.625 56.6875 565.28125 70.277344 647.460938 C 77.914062 693.523438 94.355469 729.800781 101.675781 744.234375 " fill-opacity="1" fill-rule="nonzero"/></g><g clip-path="url(#a53b005774)"><path fill="#01224d" d="M 639.421875 856.832031 L 1184.328125 1526.421875 L 1331.628906 1526.421875 L 726.914062 769.363281 L 639.421875 856.832031 " fill-opacity="1" fill-rule="nonzero"/></g><g clip-path="url(#e93fbdf044)"><path fill="#01224d" d="M 469.613281 1019.207031 L 876.246094 1526.421875 L 1069.425781 1526.421875 L 575.917969 915.640625 L 469.613281 1019.207031 " fill-opacity="1" fill-rule="nonzero"/></g><g clip-path="url(#ab6f0e3b23)"><path fill="#160060" d="M 533.847656 1379.757812 C 532.636719 1378.570312 531.316406 1377.25 529.96875 1375.878906 C 529.261719 1375.148438 528.511719 1374.398438 527.757812 1373.644531 C 526.914062 1372.757812 526.027344 1371.867188 525.113281 1370.933594 C 524.382812 1370.179688 523.675781 1369.449219 522.902344 1368.652344 C 501.445312 1346.351562 468.359375 1309.023438 438.648438 1263.101562 C 417.167969 1229.878906 393.796875 1188.148438 379.816406 1142.976562 C 367.414062 1082.9375 386.269531 1019.457031 430.140625 974.558594 L 1462.058594 -81.59375 L 1266.78125 -81.59375 L 335.625 843.402344 C 321.71875 857.21875 122.769531 1055.394531 371.675781 1389.492188 L 543.949219 1389.492188 C 542.011719 1387.691406 538.726562 1384.589844 534.460938 1380.347656 L 533.847656 1379.757812 " fill-opacity="1" fill-rule="nonzero"/></g><g clip-path="url(#5cc3fd603e)"><path fill="#160060" d="M 1007.402344 -81.640625 L 1007.175781 -81.480469 L 263.84375 611.59375 L 244.191406 629.902344 C 193 677.675781 159.480469 741.519531 150.816406 809.859375 L 150.746094 810.179688 C 150.109375 814.304688 149.652344 818.363281 149.492188 822.265625 L 149.492188 822.652344 C 148.558594 834.644531 148.328125 846.820312 148.945312 859.042969 C 151.132812 901.457031 162.738281 947.289062 191.585938 991.707031 C 191.585938 991.707031 178.882812 885.632812 238.261719 825.457031 L 1161.570312 -81.160156 L 1162.117188 -81.640625 L 1007.402344 -81.640625 " fill-opacity="1" fill-rule="nonzero"/></g></svg>